# xmcd
#
# Track frame offsets: 
#        150
#        14957
#        30407
#        43821
#        55942
#        70643
#        83860
#        97344
#        111075
#        125080
#        136412
#        148666
#        163253
#        177338
#        191770
#        206335
#        221252
#        233868
#        248471
#        254838
#        269592
#        280833
#        293123
#        307578
#        319130
#        332173
#        343485
#
# Disc length: 4761 seconds
#
# Revision: 0
# Processed by: cddbd v1.5.2PL0 Copyright (c) Steve Scherf et al.
# Submitted via: ExactAudioCopyFreeDBPlugin 1.0
#
DISCID=ac12971b
DTITLE=Various Artist - VA - Really the Blues - Disc 15
DYEAR=1900
DGENRE=30s
TTITLE0=Prairie Ramblers - Deep Elm Blues
TTITLE1=Big Joe Williams - Baby Please Don't Go
TTITLE2=Red Norvo - Blues in E Flat
TTITLE3=Homer Callahan - Rounder's Luck
TTITLE4=Leroy Carr and Scrapper Blackwell - Rocks in My Bed
TTITLE5=Lucille Bogan - Until the Cows Come Home
TTITLE6=Little Brother Montgomery - Vicksburg Blues II
TTITLE7=Lawrence Walker - Alberta
TTITLE8=Jimmie Lunceford - Hittin' the Bottle
TTITLE9=Booker T. Sapps - Alabama
TTITLE10=Booker T. Sapps - Boot That Thing
TTITLE11=J.E. Mainer's Mountaineers - The Longest Train
TTITLE12=Walter Davis - Sloppy Drunk Again
TTITLE13=Blind Willie McTell - Cold Winter's Day
TTITLE14=Leadbelly - Honey I'm All Down and Out
TTITLE15=Mildred Bailey - Willow Tree
TTITLE16=Hartman's Heartbreakers - Give It to Me Daddy
TTITLE17=Heavenly Gospel Singers - I'm a Pilgrim and a Stranger
TTITLE18=Jimmy Strothers - I Used to Work on the Tractor
TTITLE19=Cliff Carlisle - The Nasty Swing
TTITLE20=Mitchell's Christian Singers - Who Was John?
TTITLE21=Original Dixieland Jazz Band - Bluin' the Blues
TTITLE22=Valaida Snow - I Must Have That Man
TTITLE23=Al Dexter - New Jelly Roll Blues
TTITLE24=Milton Brown - Somebody's Been Using That Thing
TTITLE25=Robert Johnson - Walkin' Blues
TTITLE26=Jessie James - Lonesome Day Blues
EXTD=
EXTT0=
EXTT1=
EXTT2=
EXTT3=
EXTT4=
EXTT5=
EXTT6=
EXTT7=
EXTT8=
EXTT9=
EXTT10=
EXTT11=
EXTT12=
EXTT13=
EXTT14=
EXTT15=
EXTT16=
EXTT17=
EXTT18=
EXTT19=
EXTT20=
EXTT21=
EXTT22=
EXTT23=
EXTT24=
EXTT25=
EXTT26=
PLAYORDER=
